HIERARCHY
ROOT Hips
{
	OFFSET 0.000000 0.000000 0.000000
	CHANNELS 6 Xposition Yposition Zposition Zrotation Xrotation Yrotation
	JOINT Spine1
	{
		OFFSET 0.000000 -55.538940 -0.000019
		CHANNELS 6 Xposition Yposition Zposition Zrotation Xrotation Yrotation
		JOINT Neck
		{
			OFFSET 0.000000 -44.277603 -0.000015
			CHANNELS 6 Xposition Yposition Zposition Zrotation Xrotation Yrotation
			JOINT Head
			{
				OFFSET 0.000000 -28.153603 -3.632728
				CHANNELS 6 Xposition Yposition Zposition Zrotation Xrotation Yrotation
				End Site
				{
					OFFSET 0.000000 -36.327110 -0.000012
				}
			}
		}
		JOINT LeftShoulder
		{
			OFFSET 7.315340 -35.751801 0.960236
			CHANNELS 6 Xposition Yposition Zposition Zrotation Xrotation Yrotation
			JOINT LeftArm
			{
				OFFSET 26.103201 0.000000 0.000000
				CHANNELS 6 Xposition Yposition Zposition Zrotation Xrotation Yrotation
				JOINT LeftForeArm
				{
					OFFSET 51.184196 0.000000 0.000000
					CHANNELS 6 Xposition Yposition Zposition Zrotation Xrotation Yrotation
					JOINT LeftHand
					{
						OFFSET 47.569000 0.000000 0.000000
						CHANNELS 6 Xposition Yposition Zposition Zrotation Xrotation Yrotation
						End Site
						{
							OFFSET 27.245331 0.000000 0.000000
						}
					}
				}
			}
		}
		JOINT RightShoulder
		{
			OFFSET -7.214420 -35.751801 0.960236
			CHANNELS 6 Xposition Yposition Zposition Zrotation Xrotation Yrotation
			JOINT RightArm
			{
				OFFSET -26.103199 0.000000 0.000000
				CHANNELS 6 Xposition Yposition Zposition Zrotation Xrotation Yrotation
				JOINT RightForeArm
				{
					OFFSET -51.184196 0.000000 0.000000
					CHANNELS 6 Xposition Yposition Zposition Zrotation Xrotation Yrotation
					JOINT RightHand
					{
						OFFSET -47.569016 0.000000 0.000000
						CHANNELS 6 Xposition Yposition Zposition Zrotation Xrotation Yrotation
						End Site
						{
							OFFSET -27.245331 0.000000 0.000000
						}
					}
				}
			}
		}
	}
	JOINT LeftUpLeg
	{
		OFFSET 18.163601 0.000000 0.000000
		CHANNELS 6 Xposition Yposition Zposition Zrotation Xrotation Yrotation
		JOINT LeftLeg
		{
			OFFSET 0.000000 76.389801 0.000024
			CHANNELS 6 Xposition Yposition Zposition Zrotation Xrotation Yrotation
			JOINT LeftFoot
			{
				OFFSET 0.000000 80.085999 0.000027
				CHANNELS 6 Xposition Yposition Zposition Zrotation Xrotation Yrotation
				JOINT LeftToeBase
				{
					OFFSET 0.000000 11.806335 -27.245394
					CHANNELS 6 Xposition Yposition Zposition Zrotation Xrotation Yrotation
					End Site
					{
						OFFSET 0.000000 0.000000 -7.265423
					}
				}
			}
		}
	}
	JOINT RightUpLeg
	{
		OFFSET -18.163601 0.000000 0.000000
		CHANNELS 6 Xposition Yposition Zposition Zrotation Xrotation Yrotation
		JOINT RightLeg
		{
			OFFSET 0.000000 76.389801 0.000024
			CHANNELS 6 Xposition Yposition Zposition Zrotation Xrotation Yrotation
			JOINT RightFoot
			{
				OFFSET 0.000000 80.085999 0.000027
				CHANNELS 6 Xposition Yposition Zposition Zrotation Xrotation Yrotation
				JOINT RightToeBase
				{
					OFFSET 0.000000 11.806335 -27.245394
					CHANNELS 6 Xposition Yposition Zposition Zrotation Xrotation Yrotation
					End Site
					{
						OFFSET 0.000000 0.000000 -7.265423
					}
				}
			}
		}
	}
}
MOTION
Frames: 8
Frame Time: 0.016667
-14.330738 -143.659470 -26.229479 -1.314479 16.834425 0.975736 0.000002 -55.538898 -0.000034 -3.894676 -14.288749 3.288374 0.000004 -44.277607 -0.000019 -2.823476 5.533614 -3.778435 -0.000006 -28.153614 -3.632722 4.774712 1.981064 -5.113859 7.315341 -35.751820 0.960238 -22.226814 -6.273534 -2.739641 26.103195 -0.000032 -0.000013 10.161450 -8.947704 9.973479 51.184200 -0.000012 -0.000001 0.396387 -9.994268 -0.122503 47.568981 -0.000007 -0.000011 -3.271437 -9.503237 -17.299759 -7.214416 -35.751801 0.960240 16.564452 0.745822 7.597323 -26.103207 -0.000034 -0.000001 -6.743408 15.916825 -16.614959 -51.184196 0.000020 -0.000023 45.834247 -36.343587 -85.037153 -47.569016 -0.000015 0.000005 34.683403 5.811163 -6.351989 18.163601 0.000011 -0.000001 -35.541764 -28.022381 -31.782270 -0.000013 76.389786 0.000022 22.262278 37.186760 -22.638297 -0.000014 80.086006 0.000027 5.403329 -6.027549 -18.024116 -0.000005 11.806334 -27.245382 -0.000002 -0.000006 0.000002 -18.163605 0.000006 -0.000002 38.992017 -28.244799 10.484881 -0.000001 76.389793 0.000021 -40.858130 26.571382 34.432879 0.000020 80.085999 0.000042 -6.049055 -17.682419 23.525957 -0.000005 11.806336 -27.245399 -0.000000 -0.000001 0.000002 
-14.332468 -143.651260 -26.230501 -1.310563 16.836362 0.970085 -0.000001 -55.538940 -0.000019 -3.889055 -14.285032 3.290989 -0.000003 -44.277622 -0.000025 -2.822450 5.540745 -3.782596 -0.000001 -28.153624 -3.632718 4.754744 1.964621 -5.114566 7.315337 -35.751831 0.960231 -22.232264 -6.268601 -2.738368 26.103199 -0.000017 -0.000003 10.170781 -8.927850 9.966664 51.184204 -0.000014 0.000002 0.388814 -10.005585 -0.107984 47.569000 -0.000043 -0.000010 -3.255966 -9.516678 -17.309195 -7.214426 -35.751778 0.960230 16.561433 0.738855 7.597957 -26.103201 0.000020 -0.000008 -6.774066 15.857940 -16.611515 -51.184189 0.000011 -0.000014 45.771946 -36.305966 -85.106097 -47.569008 -0.000010 -0.000002 34.663371 5.833315 -6.381663 18.163601 -0.000021 -0.000001 -35.544188 -28.032164 -31.776414 -0.000005 76.389778 0.000024 22.256491 37.199580 -22.634014 -0.000010 80.085991 0.000021 5.422511 -6.047563 -18.017983 -0.000006 11.806334 -27.245384 -0.000004 -0.000002 0.000006 -18.163601 -0.000007 0.000004 38.986453 -28.246809 10.532854 0.000004 76.389809 0.000021 -40.832988 26.613450 34.403000 0.000019 80.086014 0.000044 -6.046543 -17.697208 23.499116 0.000008 11.806336 -27.245394 -0.000001 -0.000000 0.000001 
-14.337470 -143.649521 -26.225939 -1.304898 16.840489 0.969727 0.000003 -55.538895 -0.000018 -3.893726 -14.283800 3.294158 0.000001 -44.277637 -0.000016 -2.749783 5.574327 -3.790201 -0.000003 -28.153599 -3.632719 4.623991 1.892917 -5.088112 7.315336 -35.751816 0.960240 -22.227577 -6.275886 -2.731620 26.103201 -0.000012 -0.000008 10.181381 -8.868228 9.943909 51.184200 -0.000042 0.000014 0.371037 -10.066060 -0.079710 47.568981 0.000044 0.000043 -3.317151 -9.568094 -17.311102 -7.214422 -35.751770 0.960240 16.592170 0.726565 7.585962 -26.103191 0.000024 -0.000014 -6.841315 15.825705 -16.595369 -51.184200 0.000023 -0.000033 45.731859 -36.275695 -85.158327 -47.569027 0.000021 0.000002 34.668609 5.862783 -6.395494 18.163605 0.000042 -0.000001 -35.554256 -28.040109 -31.775963 -0.000009 76.389763 0.000014 22.258419 37.201790 -22.649681 -0.000019 80.086029 0.000027 5.447408 -6.068075 -18.006172 0.000005 11.806334 -27.245384 0.000000 -0.000003 0.000002 -18.163605 0.000031 0.000001 38.992303 -28.249376 10.505964 0.000005 76.389801 0.000017 -40.869957 26.580567 34.426124 0.000016 80.086021 0.000020 -5.990573 -17.684567 23.537038 -0.000002 11.806334 -27.245388 -0.000001 -0.000006 0.000002 
-14.347470 -143.647217 -26.222988 -1.296550 16.842801 0.961402 0.000000 -55.538906 -0.000019 -3.898879 -14.285698 3.304618 0.000001 -44.277599 -0.000015 -2.736864 5.588357 -3.794938 0.000002 -28.153645 -3.632736 4.602117 1.879347 -5.087271 7.315338 -35.751797 0.960237 -22.222893 -6.272596 -2.731615 26.103224 -0.000015 -0.000007 10.191731 -8.822364 9.944971 51.184204 -0.000008 -0.000002 0.359604 -10.104165 -0.074191 47.569012 -0.000010 0.000007 -3.342067 -9.601853 -17.334310 -7.214418 -35.751812 0.960235 16.574813 0.738445 7.588743 -26.103197 -0.000001 -0.000010 -6.816495 15.820822 -16.609166 -51.184185 0.000029 -0.000016 45.750858 -36.285793 -85.124347 -47.569046 -0.000013 0.000005 34.660437 5.846193 -6.388673 18.163605 0.000011 0.000003 -35.565099 -28.049044 -31.764676 0.000002 76.389755 0.000018 22.263005 37.203935 -22.653174 -0.000002 80.086014 0.000013 5.407771 -6.041874 -18.024523 -0.000004 11.806332 -27.245396 -0.000003 -0.000004 0.000008 -18.163605 0.000010 0.000001 38.990575 -28.242253 10.522646 0.000004 76.389793 0.000012 -40.884638 26.569400 34.431465 0.000019 80.086021 0.000031 -6.022394 -17.700083 23.536555 -0.000003 11.806336 -27.245392 -0.000001 0.000000 -0.000001 
-14.353088 -143.644028 -26.221045 -1.288782 16.849332 0.958309 0.000003 -55.538914 -0.000014 -3.909346 -14.293773 3.314539 0.000003 -44.277584 -0.000011 -2.805987 5.572056 -3.785822 -0.000003 -28.153591 -3.632718 4.739643 1.935694 -5.112304 7.315337 -35.751793 0.960248 -22.210858 -6.284832 -2.720736 26.103178 0.000048 -0.000008 10.196162 -8.793991 9.926848 51.184196 0.000014 0.000003 0.354014 -10.131369 -0.066645 47.568970 -0.000025 -0.000005 -3.339891 -9.629306 -17.339619 -7.214422 -35.751816 0.960248 16.606094 0.717028 7.568936 -26.103205 0.000019 0.000002 -6.854324 15.867679 -16.587758 -51.184181 -0.000001 -0.000010 45.789407 -36.301919 -85.085565 -47.569038 -0.000038 0.000034 34.645721 5.842233 -6.384148 18.163601 0.000041 0.000001 -35.578903 -28.061682 -31.757111 -0.000017 76.389771 0.000009 22.267829 37.210621 -22.678374 -0.000011 80.085999 0.000013 5.449551 -6.063375 -18.001184 0.000006 11.806334 -27.245399 -0.000001 -0.000001 0.000004 -18.163605 0.000020 0.000015 38.991603 -28.253373 10.535361 0.000014 76.389778 0.000009 -40.897694 26.590697 34.393715 0.000015 80.085983 0.000027 -6.029043 -17.702616 23.562408 0.000005 11.806319 -27.245405 0.000002 -0.000001 0.000001 
-14.362106 -143.641144 -26.219828 -1.278133 16.851878 0.963797 0.000002 -55.538925 -0.000019 -3.912282 -14.302201 3.304377 -0.000002 -44.277660 -0.000009 -2.731742 5.609492 -3.796868 -0.000006 -28.153641 -3.632727 4.577172 1.886782 -5.085506 7.315332 -35.751858 0.960237 -22.212564 -6.295491 -2.714178 26.103195 -0.000027 -0.000006 10.210489 -8.815983 9.929048 51.184185 0.000036 -0.000013 0.354290 -10.128099 -0.071472 47.569016 0.000009 -0.000005 -3.359296 -9.622197 -17.370219 -7.214423 -35.751850 0.960240 16.571823 0.730282 7.566969 -26.103209 0.000028 0.000001 -6.821034 15.876355 -16.596468 -51.184185 0.000013 -0.000015 45.826724 -36.315224 -85.034182 -47.569038 -0.000021 0.000048 34.660997 5.825003 -6.385289 18.163605 0.000005 -0.000001 -35.599796 -28.058899 -31.757538 -0.000004 76.389786 0.000042 22.274510 37.215191 -22.660471 -0.000008 80.085983 0.000022 5.456820 -6.070690 -18.021849 0.000010 11.806318 -27.245388 -0.000000 -0.000001 0.000002 -18.163605 0.000007 0.000001 38.971714 -28.257898 10.507523 0.000006 76.389801 0.000023 -40.899388 26.567327 34.404250 0.000020 80.085976 0.000027 -6.021463 -17.707566 23.571020 0.000014 11.806334 -27.245388 -0.000001 0.000001 0.000002 
-14.371718 -143.636856 -26.221447 -1.271234 16.851945 0.960542 -0.000001 -55.538898 -0.000018 -3.924521 -14.310935 3.310008 0.000000 -44.277615 -0.000019 -2.782829 5.588581 -3.788412 -0.000009 -28.153568 -3.632738 4.682229 1.968600 -5.104125 7.315344 -35.751816 0.960234 -22.187955 -6.299059 -2.716057 26.103201 0.000008 -0.000001 10.226755 -8.927674 9.958692 51.184181 0.000009 0.000010 0.356395 -10.089336 -0.095550 47.568981 0.000012 -0.000023 -3.335070 -9.586986 -17.368881 -7.214417 -35.751820 0.960230 16.606148 0.710348 7.546894 -26.103197 0.000028 -0.000001 -6.854295 15.955054 -16.569148 -51.184193 0.000043 -0.000019 45.907443 -36.350704 -84.955191 -47.569012 -0.000002 0.000007 34.655239 5.810104 -6.390650 18.163601 0.000022 0.000001 -35.609307 -28.061713 -31.751350 -0.000009 76.389801 0.000039 22.279951 37.213487 -22.682380 -0.000007 80.085999 0.000007 5.427518 -6.047074 -18.026886 -0.000001 11.806335 -27.245398 -0.000002 -0.000000 0.000000 -18.163601 0.000032 0.000000 38.965785 -28.260784 10.533128 0.000002 76.389771 0.000024 -40.897428 26.591916 34.387103 0.000000 80.086021 0.000025 -6.014294 -17.709019 23.563926 -0.000007 11.806318 -27.245398 0.000001 -0.000001 -0.000007 
-14.376188 -143.636459 -26.221136 -1.269236 16.853328 0.968576 0.000002 -55.538902 -0.000022 -3.918154 -14.315076 3.299963 -0.000002 -44.277630 -0.000010 -2.790037 5.584369 -3.785334 0.000000 -28.153557 -3.632700 4.667845 2.003829 -5.101437 7.315336 -35.751816 0.960238 -22.193580 -6.297051 -2.722022 26.103201 -0.000029 -0.000006 10.256793 -8.994204 9.978348 51.184204 -0.000032 0.000004 0.358011 -10.108158 -0.091983 47.568981 0.000030 0.000001 -3.405601 -9.594661 -17.387346 -7.214426 -35.751835 0.960244 16.593735 0.696886 7.531595 -26.103207 -0.000013 -0.000004 -6.864966 15.962523 -16.555246 -51.184177 -0.000031 -0.000017 45.934607 -36.347084 -84.929974 -47.569016 -0.000017 0.000064 34.658299 5.821062 -6.405593 18.163605 0.000035 -0.000001 -35.616629 -28.061235 -31.750332 -0.000004 76.389786 0.000011 22.275760 37.225190 -22.632803 -0.000009 80.085991 0.000012 5.472036 -6.080013 -18.051625 0.000009 11.806335 -27.245373 0.000000 0.000001 0.000003 -18.163601 0.000034 0.000002 38.967476 -28.268674 10.505796 -0.000001 76.389771 0.000020 -40.923065 26.578452 34.400210 0.000027 80.086006 0.000029 -5.976480 -17.690972 23.582142 0.000010 11.806318 -27.245386 0.000001 -0.000004 -0.000004 
